# File created by Blade
# Date/Time:  Wed Apr 08 17:39:35 2015
# Frame Rate: 120.000 fps
#------------------------------------------------------
:FULLY-SPECIFIED
:DEGREES
3007
root 9.463359 37.376144 2.948299 182.103431 -48.399274 -511.140530
Spine -9.615302 -1.776260 2.291730
Head 38.281400 -25.248964 18.170040
LeftShoulder -6.896167 18.191788 18.639799
LeftArm 21.588794 20.379551 -73.457089
LeftForeArm 15.581217 -0.000000 27.226652
LeftHand -13.439106 -0.000000 -9.894888
LeftHandThumb1 -26.253704 0.000000 33.147579
RightShoulder -38.539584 -47.588443 23.758919
RightArm 53.644218 -11.951147 55.246606
RightForeArm 1.456984 0.000000 11.922353
RightHand -0.683840 -0.000000 -1.200011
RightHandThumb1 -24.326973 -0.000000 -32.862282
LeftUpLeg -31.498965 27.913797 -2.914601
LeftLeg 9.915373 -0.000000 -0.000000
LeftFoot -11.485736 17.261377 -1.990653
LeftToeBase 5.596802 -0.000000 -0.000000
RightUpLeg -61.601399 -5.516846 16.119003
RightLeg 91.812580 -0.000000 -0.000000
RightFoot -18.444996 -10.165066 20.447682
RightToeBase -9.586978 -0.000000 0.000000
3008
root 9.470399 37.378061 2.954908 182.068047 -48.304613 -511.102185
Spine -9.494980 -1.748771 2.242986
Head 38.220876 -25.165498 18.286576
LeftShoulder -6.859988 18.102777 18.699169
LeftArm 21.585831 20.264609 -73.514459
LeftForeArm 15.565247 -0.000000 27.331507
LeftHand -13.355171 -0.000000 -9.879867
LeftHandThumb1 -26.253704 0.000000 33.147579
RightShoulder -38.500952 -47.587700 23.745573
RightArm 53.615604 -12.090030 55.139240
RightForeArm 1.296713 -0.000000 11.861617
RightHand -0.941302 -0.000000 -0.923965
RightHandThumb1 -24.326973 -0.000000 -32.862282
LeftUpLeg -31.546557 28.114005 -2.952980
LeftLeg 9.938745 -0.000000 -0.000000
LeftFoot -11.509688 17.151361 -2.005954
LeftToeBase 5.591350 -0.000000 -0.000000
RightUpLeg -61.644241 -5.870651 16.708775
RightLeg 90.497628 -0.000000 -0.000000
RightFoot -18.659574 -9.976238 20.244961
RightToeBase -10.252394 -0.000000 0.000000
3009
root 9.476625 37.379477 2.960800 182.036354 -48.210789 -511.087293
Spine -9.365372 -1.711664 2.171733
Head 38.183637 -25.114315 18.377323
LeftShoulder -6.810303 18.046885 18.757788
LeftArm 21.614954 20.185124 -73.526990
LeftForeArm 15.503719 -0.000000 27.495567
LeftHand -13.349498 -0.000000 -9.867964
LeftHandThumb1 -26.253704 0.000000 33.147579
RightShoulder -38.504592 -47.601780 23.788394
RightArm 53.596741 -12.188171 55.069775
RightForeArm 1.174396 -0.000000 11.844139
RightHand -1.131183 -0.000000 -0.378841
RightHandThumb1 -24.326973 -0.000000 -32.862282
LeftUpLeg -31.577223 28.313573 -2.994003
LeftLeg 9.973558 -0.000000 -0.000000
LeftFoot -11.541428 17.024339 -2.038074
LeftToeBase 5.597892 -0.000000 -0.000000
RightUpLeg -61.685891 -6.211260 17.235713
RightLeg 89.279073 -0.000000 -0.000000
RightFoot -18.745746 -9.495638 20.094175
RightToeBase -10.970773 -0.000000 0.000000
3010
root 9.481908 37.380431 2.971732 182.102307 -48.055370 -511.141872
Spine -9.294508 -1.628291 2.056598
Head 38.152838 -25.019345 18.474540
LeftShoulder -6.808988 18.009537 18.778654
LeftArm 21.683909 20.154377 -73.479001
LeftForeArm 15.416980 -0.000000 27.626883
LeftHand -13.374730 -0.000000 -9.894899
LeftHandThumb1 -26.253704 0.000000 33.147579
RightShoulder -38.497803 -47.643987 23.825813
RightArm 53.594731 -12.284961 54.987125
RightForeArm 0.915138 -0.000000 11.808772
RightHand -1.300098 -0.000000 0.113239
RightHandThumb1 -24.326973 -0.000000 -32.862282
LeftUpLeg -31.629324 28.513926 -3.080011
LeftLeg 9.982831 -0.000000 -0.000000
LeftFoot -11.575327 16.947439 -2.113522
LeftToeBase 5.607396 -0.000000 -0.000000
RightUpLeg -61.786686 -6.435623 17.642439
RightLeg 88.196856 -0.000000 -0.000000
RightFoot -18.673376 -8.865544 19.911937
RightToeBase -11.080336 -0.000000 0.000000
3011
root 9.484352 37.377768 2.987124 182.294010 -47.891047 -511.311126
Spine -9.286880 -1.526717 1.863531
Head 38.133657 -24.912338 18.542254
LeftShoulder -6.791565 18.012091 18.799640
LeftArm 21.780132 20.132390 -73.399062
LeftForeArm 15.353385 -0.000000 27.778558
LeftHand -13.371703 0.000000 -9.927564
LeftHandThumb1 -26.253704 0.000000 33.147579
RightShoulder -38.515559 -47.679332 23.854933
RightArm 53.606501 -12.418586 54.893688
RightForeArm 0.665748 -0.000000 11.727437
RightHand -1.423156 -0.000000 0.531503
RightHandThumb1 -24.326973 -0.000000 -32.862282
LeftUpLeg -31.710850 28.700112 -3.267992
LeftLeg 9.969864 -0.000000 -0.000000
LeftFoot -11.580808 16.884633 -2.160522
LeftToeBase 5.577178 -0.000000 -0.000000
RightUpLeg -61.971388 -6.572926 17.853840
RightLeg 87.289303 -0.000000 -0.000000
RightFoot -18.552241 -8.025290 19.894246
RightToeBase -10.300614 -0.000000 0.000000
3012
root 9.484492 37.371902 3.006934 182.526662 -47.745526 -511.534243
Spine -9.285624 -1.434589 1.647726
Head 38.136971 -24.838090 18.550660
LeftShoulder -6.749909 17.935265 18.825556
LeftArm 21.801428 20.141347 -73.345369
LeftForeArm 15.329290 0.000000 27.887957
LeftHand -13.329458 -0.000000 -9.929563
LeftHandThumb1 -26.253704 0.000000 33.147579
RightShoulder -38.538558 -47.706804 23.870225
RightArm 53.640138 -12.595962 54.771773
RightForeArm 0.553502 -0.000000 11.610334
RightHand -1.521143 -0.000000 0.677157
RightHandThumb1 -24.326973 -0.000000 -32.862282
LeftUpLeg -31.794974 28.830484 -3.488457
LeftLeg 9.970534 -0.000000 -0.000000
LeftFoot -11.597356 16.867695 -2.197854
LeftToeBase 5.563275 -0.000000 -0.000000
RightUpLeg -62.219699 -6.739517 17.983926
RightLeg 86.566120 -0.000000 -0.000000
RightFoot -18.121606 -7.513002 19.320492
RightToeBase -8.801092 -0.000000 0.000000
